<svg width="183" height="50" viewBox="0 0 183 50" fill="none" xmlns="http://www.w3.org/2000/svg">
<path d="M65.5171 47.4941V31.4819H67.584V47.4941H65.5171ZM62.2798 47.021V38.2637H59.9722V36.5122H62.2798V31.8057H64.3384V47.021H62.2798ZM60.2793 43.6675C59.1117 42.6991 58.2428 41.6227 57.6729 40.4385C57.4238 41.0306 57.0033 41.6919 56.4111 42.4224C55.819 43.1528 55.2656 43.7062 54.751 44.0825L53.2568 42.7378C55.5368 41.3101 56.6768 39.1574 56.6768 36.2798V32.5693H58.6606V36.3296C58.6606 38.9084 59.6872 40.8729 61.7402 42.2231L60.2793 43.6675ZM72.8882 38.5874V32.1294H74.9634V33.9141H81.189V32.1294H83.2642V38.5874H72.8882ZM81.189 35.5825H74.9634V36.8857H81.189V35.5825ZM70.647 41.7168V39.9653H85.5054V41.7168H70.647ZM72.8384 47.0542V42.5303H74.9302V45.3027H83.5298V47.0542H72.8384ZM100.804 40.2227C99.6637 39.8851 98.5597 39.3621 97.4917 38.6538C96.4237 37.9455 95.613 37.1984 95.0596 36.4126C94.5117 37.2261 93.7093 37.9897 92.6523 38.7036C91.6009 39.4175 90.4886 39.9294 89.3154 40.2393L88.1035 38.6206C90.0072 38.2056 91.4681 37.5111 92.4863 36.5371C93.5101 35.5576 94.022 34.6141 94.022 33.7065V32.5195H96.1304V33.7065C96.1304 34.592 96.6395 35.5327 97.6577 36.5288C98.6815 37.5194 100.134 38.2166 102.016 38.6206L100.804 40.2227ZM87.647 45.1118V43.4019H102.505V45.1118H87.647ZM104.647 41.5093V39.7412H111.039V38.5376H106.888V31.8721H117.297V33.5571H108.997V34.4204H116.99V35.9893H108.997V36.8691H117.463V38.5376H113.114V39.7412H119.505V41.5093H104.647ZM115.239 47.4941V44.1323H106.623V42.3643H117.331V47.4941H115.239ZM128.952 33.8975V32.4033H134.015V31.208H136.074V32.4033H141.154V33.8975H128.952ZM127.624 40.646V38.9941H134.015V38.3301C131.149 38.236 129.715 37.5692 129.715 36.3296C129.715 34.9683 131.494 34.2876 135.053 34.2876C138.6 34.2876 140.374 34.9683 140.374 36.3296C140.374 37.5415 138.94 38.2083 136.074 38.3301V38.9941H142.482V40.646H127.624ZM135.053 35.6821C133.918 35.6821 133.102 35.7292 132.604 35.8232C132.106 35.9173 131.857 36.0861 131.857 36.3296C131.857 36.5565 132.078 36.7142 132.521 36.8027C132.969 36.8913 133.813 36.9355 135.053 36.9355C136.314 36.9355 137.158 36.894 137.584 36.811C138.016 36.728 138.232 36.5675 138.232 36.3296C138.232 36.0861 137.983 35.9173 137.485 35.8232C136.992 35.7292 136.182 35.6821 135.053 35.6821ZM129.798 47.3613V43.5347H138.232V42.8042H129.798V41.2021H140.324V45.0288H131.874V45.7593H140.647V47.3613H129.798ZM156.045 40.5464V31.4819H158.087V40.5464H156.045ZM154.078 39.3345C151.925 39.4839 149.125 39.5586 145.678 39.5586V32.229H153.58V33.9639H147.736V37.8237C150.448 37.8237 152.526 37.7656 153.97 37.6494L154.078 39.3345ZM153.057 47.4277C151.408 47.4277 150.116 47.1206 149.181 46.5063C148.251 45.8921 147.786 45.0897 147.786 44.0991C147.786 43.1141 148.254 42.3117 149.189 41.6919C150.124 41.0721 151.414 40.7622 153.057 40.7622C154.706 40.7622 155.998 41.0749 156.934 41.7002C157.874 42.32 158.345 43.1196 158.345 44.0991C158.345 45.0841 157.874 45.8838 156.934 46.498C155.998 47.1178 154.706 47.4277 153.057 47.4277ZM153.057 42.4805C151.989 42.4805 151.195 42.6326 150.675 42.937C150.155 43.2414 149.895 43.6287 149.895 44.0991C149.895 44.575 150.157 44.9624 150.683 45.2612C151.209 45.5601 152 45.7095 153.057 45.7095C154.109 45.7095 154.9 45.5601 155.431 45.2612C155.968 44.9624 156.236 44.575 156.236 44.0991C156.236 43.6232 155.971 43.2358 155.439 42.937C154.908 42.6326 154.114 42.4805 153.057 42.4805ZM174.78 40.2227C173.64 39.8851 172.536 39.3621 171.468 38.6538C170.4 37.9455 169.59 37.1984 169.036 36.4126C168.488 37.2261 167.686 37.9897 166.629 38.7036C165.577 39.4175 164.465 39.9294 163.292 40.2393L162.08 38.6206C163.984 38.2056 165.445 37.5111 166.463 36.5371C167.487 35.5576 167.999 34.6141 167.999 33.7065V32.5195H170.107V33.7065C170.107 34.592 170.616 35.5327 171.634 36.5288C172.658 37.5194 174.111 38.2166 175.992 38.6206L174.78 40.2227ZM161.624 45.1118V43.4019H176.482V45.1118H161.624Z" fill="white"/>
<path d="M55.6212 17.35C55.3512 17.24 55.0812 17.1 54.8112 16.93C54.5512 16.75 54.3112 16.545 54.0912 16.315C53.8812 16.085 53.7062 15.825 53.5662 15.535C53.4362 15.245 53.3712 14.925 53.3712 14.575C53.3712 14.265 53.4362 13.95 53.5662 13.63C53.6962 13.31 53.8962 13.025 54.1662 12.775C54.4362 12.515 54.7762 12.305 55.1862 12.145C55.5962 11.985 56.0812 11.905 56.6412 11.905C57.0412 11.905 57.4212 11.94 57.7812 12.01C58.1412 12.08 58.5062 12.185 58.8762 12.325L59.6262 12.595C59.6762 12.615 59.7062 12.64 59.7162 12.67C59.7362 12.69 59.7462 12.73 59.7462 12.79V14.665C59.6462 14.685 59.5662 14.695 59.5062 14.695C59.4462 14.695 59.3612 14.685 59.2512 14.665L58.8912 13.69C58.7912 13.43 58.5312 13.21 58.1112 13.03C57.6912 12.85 57.1812 12.76 56.5812 12.76C55.8312 12.76 55.2962 12.91 54.9762 13.21C54.6662 13.51 54.5112 13.9 54.5112 14.38C54.5112 14.67 54.5562 14.915 54.6462 15.115C54.7462 15.315 54.8762 15.49 55.0362 15.64C55.1962 15.78 55.3812 15.9 55.5912 16C55.8012 16.1 56.0212 16.2 56.2512 16.3L57.8712 16.975C58.1512 17.095 58.4262 17.235 58.6962 17.395C58.9662 17.555 59.2012 17.745 59.4012 17.965C59.6112 18.185 59.7762 18.44 59.8962 18.73C60.0262 19.02 60.0912 19.35 60.0912 19.72C60.0912 20.1 60.0162 20.465 59.8662 20.815C59.7262 21.165 59.5062 21.475 59.2062 21.745C58.9162 22.015 58.5462 22.23 58.0962 22.39C57.6462 22.56 57.1162 22.645 56.5062 22.645C56.0862 22.645 55.6762 22.61 55.2762 22.54C54.8862 22.47 54.5362 22.38 54.2262 22.27L53.4762 21.97C53.3562 21.93 53.2962 21.86 53.2962 21.76V19.69C53.4562 19.65 53.6262 19.65 53.8062 19.69L54.1512 20.89C54.2312 21.16 54.5012 21.38 54.9612 21.55C55.4312 21.71 55.9912 21.79 56.6412 21.79C57.4612 21.79 58.0512 21.62 58.4112 21.28C58.7712 20.94 58.9512 20.475 58.9512 19.885C58.9512 19.585 58.9062 19.34 58.8162 19.15C58.7262 18.95 58.6062 18.785 58.4562 18.655C58.3162 18.515 58.1512 18.405 57.9612 18.325C57.7712 18.235 57.5812 18.15 57.3912 18.07L55.6212 17.35ZM61.3936 12.1C61.6436 12.15 61.8986 12.175 62.1586 12.175H69.1036C69.3636 12.175 69.6186 12.15 69.8686 12.1L70.0036 14.44C69.9336 14.48 69.8436 14.52 69.7336 14.56C69.6236 14.59 69.5236 14.605 69.4336 14.605C69.4236 14.605 69.3936 14.545 69.3436 14.425C69.3036 14.305 69.2536 14.16 69.1936 13.99C69.1336 13.82 69.0736 13.645 69.0136 13.465C68.9636 13.275 68.9186 13.12 68.8786 13H67.7386L66.1936 12.97V21.565C66.3236 21.585 66.4486 21.61 66.5686 21.64C66.6986 21.67 66.8136 21.7 66.9136 21.73C67.0236 21.75 67.1086 21.77 67.1686 21.79C67.2386 21.81 67.2736 21.825 67.2736 21.835C67.2736 21.905 67.2686 21.99 67.2586 22.09C67.2486 22.2 67.2236 22.295 67.1836 22.375H64.0636C64.0336 22.295 64.0136 22.19 64.0036 22.06C64.0036 21.94 64.0236 21.855 64.0636 21.805C64.0736 21.795 64.1036 21.78 64.1536 21.76C64.2136 21.73 64.2786 21.705 64.3486 21.685C64.4286 21.665 64.5036 21.645 64.5736 21.625C64.6536 21.605 64.7186 21.59 64.7686 21.58C64.9386 21.55 65.0286 21.49 65.0386 21.4C65.0486 21.3 65.0536 21.175 65.0536 21.025C65.0636 20.875 65.0686 20.73 65.0686 20.59C65.0686 20.44 65.0686 20.31 65.0686 20.2C65.0686 20.08 65.0686 20 65.0686 19.96V12.97L63.5236 13H62.3836C62.3436 13.12 62.2936 13.275 62.2336 13.465C62.1836 13.645 62.1286 13.82 62.0686 13.99C62.0086 14.16 61.9536 14.305 61.9036 14.425C61.8636 14.545 61.8386 14.605 61.8286 14.605C61.7386 14.605 61.6386 14.59 61.5286 14.56C61.4186 14.52 61.3286 14.48 61.2586 14.44L61.3936 12.1ZM75.9823 22.645C75.2123 22.645 74.5323 22.515 73.9423 22.255C73.3523 22.005 72.8573 21.645 72.4573 21.175C72.0573 20.695 71.7523 20.125 71.5423 19.465C71.3423 18.805 71.2423 18.07 71.2423 17.26C71.2423 16.45 71.3423 15.715 71.5423 15.055C71.7523 14.395 72.0573 13.835 72.4573 13.375C72.8573 12.905 73.3523 12.545 73.9423 12.295C74.5323 12.035 75.2123 11.905 75.9823 11.905C76.7523 11.905 77.4273 12.035 78.0073 12.295C78.5973 12.545 79.0923 12.905 79.4923 13.375C79.8923 13.835 80.1923 14.395 80.3923 15.055C80.5923 15.715 80.6923 16.45 80.6923 17.26C80.6923 18.07 80.5923 18.805 80.3923 19.465C80.1923 20.125 79.8923 20.695 79.4923 21.175C79.0923 21.645 78.5973 22.005 78.0073 22.255C77.4273 22.515 76.7523 22.645 75.9823 22.645ZM75.9673 21.73C76.5273 21.73 77.0223 21.625 77.4523 21.415C77.8923 21.205 78.2623 20.91 78.5623 20.53C78.8623 20.14 79.0873 19.67 79.2373 19.12C79.3973 18.57 79.4773 17.95 79.4773 17.26C79.4773 16.57 79.3973 15.955 79.2373 15.415C79.0873 14.865 78.8623 14.4 78.5623 14.02C78.2623 13.63 77.8923 13.335 77.4523 13.135C77.0223 12.925 76.5273 12.82 75.9673 12.82C75.4073 12.82 74.9073 12.925 74.4673 13.135C74.0373 13.335 73.6723 13.63 73.3723 14.02C73.0723 14.4 72.8423 14.865 72.6823 15.415C72.5323 15.955 72.4573 16.57 72.4573 17.26C72.4573 17.95 72.5323 18.57 72.6823 19.12C72.8423 19.67 73.0723 20.14 73.3723 20.53C73.6723 20.91 74.0373 21.205 74.4673 21.415C74.9073 21.625 75.4073 21.73 75.9673 21.73ZM87.1472 21.79C87.6372 21.79 88.1072 21.71 88.5572 21.55C89.0072 21.39 89.3622 21.17 89.6222 20.89L90.3122 19.45C90.4322 19.43 90.5422 19.445 90.6422 19.495C90.7522 19.535 90.8372 19.58 90.8972 19.63L90.4622 21.76C89.9522 22.06 89.3872 22.28 88.7672 22.42C88.1472 22.57 87.5572 22.645 86.9972 22.645C86.2072 22.645 85.5122 22.51 84.9122 22.24C84.3222 21.97 83.8272 21.595 83.4272 21.115C83.0372 20.635 82.7422 20.07 82.5422 19.42C82.3422 18.77 82.2422 18.065 82.2422 17.305C82.2422 16.425 82.3672 15.65 82.6172 14.98C82.8672 14.3 83.2122 13.735 83.6522 13.285C84.1022 12.825 84.6322 12.48 85.2422 12.25C85.8522 12.02 86.5172 11.905 87.2372 11.905C87.6472 11.905 88.0322 11.94 88.3922 12.01C88.7622 12.07 89.1022 12.155 89.4122 12.265C89.7222 12.375 89.9772 12.485 90.1772 12.595C90.3772 12.705 90.5572 12.815 90.7172 12.925V14.935C90.6372 14.955 90.5472 14.975 90.4472 14.995C90.3472 15.005 90.2622 15 90.1922 14.98C90.1422 14.68 90.0572 14.395 89.9372 14.125C89.8172 13.855 89.6672 13.635 89.4872 13.465C89.2272 13.235 88.8922 13.06 88.4822 12.94C88.0722 12.82 87.6572 12.76 87.2372 12.76C86.6872 12.76 86.1772 12.865 85.7072 13.075C85.2472 13.275 84.8472 13.57 84.5072 13.96C84.1772 14.35 83.9172 14.825 83.7272 15.385C83.5472 15.945 83.4572 16.58 83.4572 17.29C83.4572 17.98 83.5472 18.605 83.7272 19.165C83.9072 19.715 84.1572 20.185 84.4772 20.575C84.8072 20.965 85.1972 21.265 85.6472 21.475C86.1072 21.685 86.6072 21.79 87.1472 21.79ZM99.6417 22.375C99.5517 22.335 99.4517 22.265 99.3417 22.165C99.2417 22.075 99.1367 21.97 99.0267 21.85C98.9267 21.73 98.8267 21.605 98.7267 21.475C98.6267 21.345 98.5417 21.225 98.4717 21.115L95.7117 17.17L94.4067 18.355V21.565C94.6967 21.615 94.9617 21.67 95.2017 21.73C95.4417 21.79 95.5617 21.83 95.5617 21.85C95.5617 21.92 95.5567 22.005 95.5467 22.105C95.5367 22.205 95.5117 22.295 95.4717 22.375H92.3517C92.3217 22.295 92.3017 22.19 92.2917 22.06C92.2917 21.94 92.3117 21.855 92.3517 21.805C92.3617 21.795 92.3917 21.78 92.4417 21.76C92.4917 21.73 92.5467 21.705 92.6067 21.685C92.6767 21.665 92.7417 21.645 92.8017 21.625C92.8717 21.605 92.9317 21.59 92.9817 21.58C93.0617 21.56 93.1217 21.54 93.1617 21.52C93.2117 21.49 93.2417 21.45 93.2517 21.4C93.2617 21.3 93.2667 21.175 93.2667 21.025C93.2767 20.875 93.2817 20.73 93.2817 20.59C93.2817 20.44 93.2817 20.31 93.2817 20.2C93.2817 20.08 93.2817 20 93.2817 19.96V12.985C93.0217 12.935 92.7867 12.885 92.5767 12.835C92.3767 12.775 92.2767 12.735 92.2767 12.715C92.2767 12.645 92.2817 12.56 92.2917 12.46C92.3017 12.35 92.3267 12.255 92.3667 12.175H95.3367C95.3667 12.255 95.3817 12.36 95.3817 12.49C95.3917 12.61 95.3767 12.695 95.3367 12.745C95.3167 12.775 95.2317 12.815 95.0817 12.865C94.9317 12.915 94.8067 12.95 94.7067 12.97C94.6267 12.99 94.5617 13.015 94.5117 13.045C94.4717 13.065 94.4467 13.1 94.4367 13.15C94.4267 13.25 94.4167 13.375 94.4067 13.525C94.4067 13.675 94.4067 13.825 94.4067 13.975C94.4067 14.115 94.4067 14.245 94.4067 14.365C94.4067 14.475 94.4067 14.55 94.4067 14.59V17.38L98.6517 13.075V13.03C98.5517 13.01 98.4467 12.985 98.3367 12.955C98.2267 12.925 98.1217 12.895 98.0217 12.865C97.9317 12.835 97.8567 12.81 97.7967 12.79C97.7367 12.76 97.7067 12.74 97.7067 12.73C97.7067 12.66 97.7117 12.57 97.7217 12.46C97.7317 12.35 97.7567 12.255 97.7967 12.175H100.917C100.957 12.225 100.967 12.325 100.947 12.475C100.927 12.625 100.897 12.73 100.857 12.79C100.747 12.83 100.627 12.865 100.497 12.895C100.367 12.925 100.272 12.95 100.212 12.97C100.182 12.98 100.137 13.005 100.077 13.045C100.027 13.075 99.9717 13.115 99.9117 13.165C99.6217 13.415 99.3267 13.685 99.0267 13.975C98.7367 14.255 98.4867 14.5 98.2767 14.71C98.0767 14.91 97.8117 15.175 97.4817 15.505C97.1517 15.825 96.7767 16.18 96.3567 16.57C96.5267 16.76 96.7117 16.98 96.9117 17.23C97.1217 17.47 97.3267 17.725 97.5267 17.995C97.7467 18.295 97.9767 18.61 98.2167 18.94C98.4567 19.26 98.6867 19.565 98.9067 19.855C99.1267 20.145 99.3267 20.41 99.5067 20.65C99.6967 20.88 99.8467 21.06 99.9567 21.19C100.067 21.33 100.152 21.43 100.212 21.49C100.282 21.54 100.352 21.575 100.422 21.595C100.492 21.615 100.582 21.635 100.692 21.655C100.802 21.675 100.907 21.7 101.007 21.73C101.107 21.75 101.192 21.77 101.262 21.79C101.332 21.81 101.367 21.825 101.367 21.835C101.367 21.905 101.362 21.99 101.352 22.09C101.342 22.2 101.317 22.295 101.277 22.375H99.6417ZM112.95 12.715C112.95 12.645 112.955 12.56 112.965 12.46C112.975 12.35 113 12.255 113.04 12.175H116.01C116.04 12.255 116.055 12.36 116.055 12.49C116.065 12.61 116.05 12.695 116.01 12.745C115.99 12.775 115.905 12.815 115.755 12.865C115.605 12.915 115.48 12.95 115.38 12.97C115.3 12.99 115.235 13.015 115.185 13.045C115.145 13.065 115.12 13.1 115.11 13.15C115.1 13.25 115.09 13.375 115.08 13.525C115.08 13.675 115.08 13.825 115.08 13.975C115.08 14.115 115.08 14.245 115.08 14.365C115.08 14.475 115.08 14.55 115.08 14.59V21.565C115.34 21.615 115.57 21.67 115.77 21.73C115.98 21.78 116.085 21.815 116.085 21.835C116.085 21.905 116.08 21.99 116.07 22.09C116.06 22.2 116.035 22.295 115.995 22.375H113.025C112.995 22.295 112.975 22.19 112.965 22.06C112.965 21.94 112.985 21.855 113.025 21.805C113.035 21.795 113.065 21.78 113.115 21.76C113.165 21.73 113.22 21.705 113.28 21.685C113.35 21.665 113.415 21.645 113.475 21.625C113.545 21.605 113.605 21.59 113.655 21.58C113.735 21.56 113.795 21.54 113.835 21.52C113.885 21.49 113.915 21.45 113.925 21.4C113.935 21.3 113.94 21.175 113.94 21.025C113.95 20.875 113.955 20.73 113.955 20.59C113.955 20.44 113.955 20.31 113.955 20.2C113.955 20.08 113.955 20 113.955 19.96V17.605H108.51V21.565C108.77 21.615 109 21.67 109.2 21.73C109.41 21.78 109.515 21.815 109.515 21.835C109.515 21.905 109.51 21.99 109.5 22.09C109.49 22.2 109.465 22.295 109.425 22.375H106.455C106.425 22.295 106.405 22.19 106.395 22.06C106.395 21.94 106.415 21.855 106.455 21.805C106.465 21.795 106.495 21.78 106.545 21.76C106.595 21.73 106.65 21.705 106.71 21.685C106.78 21.665 106.845 21.645 106.905 21.625C106.975 21.605 107.035 21.59 107.085 21.58C107.165 21.56 107.225 21.54 107.265 21.52C107.315 21.49 107.345 21.45 107.355 21.4C107.365 21.3 107.37 21.175 107.37 21.025C107.38 20.875 107.385 20.73 107.385 20.59C107.385 20.44 107.385 20.31 107.385 20.2C107.385 20.08 107.385 20 107.385 19.96V12.985C107.125 12.935 106.89 12.885 106.68 12.835C106.48 12.775 106.38 12.735 106.38 12.715C106.38 12.645 106.385 12.56 106.395 12.46C106.405 12.35 106.43 12.255 106.47 12.175H109.44C109.47 12.255 109.485 12.36 109.485 12.49C109.495 12.61 109.48 12.695 109.44 12.745C109.42 12.775 109.335 12.815 109.185 12.865C109.035 12.915 108.91 12.95 108.81 12.97C108.73 12.99 108.665 13.015 108.615 13.045C108.575 13.065 108.55 13.1 108.54 13.15C108.53 13.25 108.52 13.375 108.51 13.525C108.51 13.675 108.51 13.825 108.51 13.975C108.51 14.115 108.51 14.245 108.51 14.365C108.51 14.475 108.51 14.55 108.51 14.59V16.78H113.955V12.985C113.695 12.935 113.46 12.885 113.25 12.835C113.05 12.775 112.95 12.735 112.95 12.715ZM122.271 22.645C121.501 22.645 120.821 22.515 120.231 22.255C119.641 22.005 119.146 21.645 118.746 21.175C118.346 20.695 118.041 20.125 117.831 19.465C117.631 18.805 117.531 18.07 117.531 17.26C117.531 16.45 117.631 15.715 117.831 15.055C118.041 14.395 118.346 13.835 118.746 13.375C119.146 12.905 119.641 12.545 120.231 12.295C120.821 12.035 121.501 11.905 122.271 11.905C123.041 11.905 123.716 12.035 124.296 12.295C124.886 12.545 125.381 12.905 125.781 13.375C126.181 13.835 126.481 14.395 126.681 15.055C126.881 15.715 126.981 16.45 126.981 17.26C126.981 18.07 126.881 18.805 126.681 19.465C126.481 20.125 126.181 20.695 125.781 21.175C125.381 21.645 124.886 22.005 124.296 22.255C123.716 22.515 123.041 22.645 122.271 22.645ZM122.256 21.73C122.816 21.73 123.311 21.625 123.741 21.415C124.181 21.205 124.551 20.91 124.851 20.53C125.151 20.14 125.376 19.67 125.526 19.12C125.686 18.57 125.766 17.95 125.766 17.26C125.766 16.57 125.686 15.955 125.526 15.415C125.376 14.865 125.151 14.4 124.851 14.02C124.551 13.63 124.181 13.335 123.741 13.135C123.311 12.925 122.816 12.82 122.256 12.82C121.696 12.82 121.196 12.925 120.756 13.135C120.326 13.335 119.961 13.63 119.661 14.02C119.361 14.4 119.131 14.865 118.971 15.415C118.821 15.955 118.746 16.57 118.746 17.26C118.746 17.95 118.821 18.57 118.971 19.12C119.131 19.67 119.361 20.14 119.661 20.53C119.961 20.91 120.326 21.205 120.756 21.415C121.196 21.625 121.696 21.73 122.256 21.73ZM134.966 21.505C134.996 21.385 135.036 21.235 135.086 21.055C135.146 20.875 135.201 20.7 135.251 20.53C135.311 20.35 135.361 20.2 135.401 20.08C135.451 19.96 135.481 19.9 135.491 19.9C135.581 19.9 135.676 19.915 135.776 19.945C135.886 19.975 135.981 20.015 136.061 20.065L135.926 22.45C135.816 22.45 135.691 22.445 135.551 22.435C135.421 22.425 135.291 22.405 135.161 22.375H128.501C128.471 22.295 128.451 22.19 128.441 22.06C128.441 21.94 128.461 21.855 128.501 21.805C128.511 21.795 128.541 21.78 128.591 21.76C128.641 21.73 128.696 21.705 128.756 21.685C128.826 21.665 128.891 21.645 128.951 21.625C129.021 21.605 129.081 21.59 129.131 21.58C129.211 21.56 129.271 21.54 129.311 21.52C129.361 21.49 129.391 21.45 129.401 21.4C129.411 21.3 129.416 21.175 129.416 21.025C129.426 20.875 129.431 20.73 129.431 20.59C129.431 20.44 129.431 20.31 129.431 20.2C129.431 20.08 129.431 20 129.431 19.96V12.985C129.171 12.935 128.936 12.885 128.726 12.835C128.526 12.775 128.426 12.735 128.426 12.715C128.426 12.645 128.431 12.56 128.441 12.46C128.451 12.35 128.476 12.255 128.516 12.175H131.486C131.516 12.255 131.531 12.36 131.531 12.49C131.541 12.61 131.526 12.695 131.486 12.745C131.466 12.775 131.381 12.815 131.231 12.865C131.081 12.915 130.956 12.95 130.856 12.97C130.776 12.99 130.711 13.015 130.661 13.045C130.621 13.065 130.596 13.1 130.586 13.15C130.576 13.25 130.566 13.375 130.556 13.525C130.556 13.675 130.556 13.825 130.556 13.975C130.556 14.115 130.556 14.245 130.556 14.365C130.556 14.475 130.556 14.55 130.556 14.59V21.55L132.206 21.505H134.966ZM137.29 22.375C137.26 22.295 137.24 22.19 137.23 22.06C137.23 21.94 137.25 21.855 137.29 21.805C137.3 21.795 137.33 21.78 137.38 21.76C137.43 21.73 137.485 21.705 137.545 21.685C137.615 21.665 137.68 21.645 137.74 21.625C137.81 21.605 137.87 21.59 137.92 21.58C138 21.56 138.06 21.54 138.1 21.52C138.15 21.49 138.18 21.45 138.19 21.4C138.2 21.3 138.205 21.185 138.205 21.055C138.215 20.915 138.22 20.78 138.22 20.65C138.22 20.51 138.22 20.38 138.22 20.26C138.22 20.14 138.22 20.04 138.22 19.96V12.985C137.96 12.935 137.725 12.885 137.515 12.835C137.315 12.775 137.215 12.735 137.215 12.715C137.215 12.645 137.22 12.56 137.23 12.46C137.24 12.35 137.265 12.255 137.305 12.175H140.635C140.925 12.175 141.24 12.18 141.58 12.19C141.93 12.2 142.29 12.24 142.66 12.31C143.04 12.37 143.42 12.47 143.8 12.61C144.18 12.75 144.545 12.945 144.895 13.195C145.495 13.625 145.95 14.175 146.26 14.845C146.58 15.505 146.74 16.255 146.74 17.095C146.74 17.985 146.555 18.805 146.185 19.555C145.825 20.305 145.325 20.905 144.685 21.355C144.345 21.595 144.005 21.785 143.665 21.925C143.335 22.055 143.025 22.15 142.735 22.21C142.455 22.28 142.205 22.325 141.985 22.345C141.775 22.365 141.62 22.375 141.52 22.375H137.29ZM139.345 13.03V21.55H141.16C141.76 21.55 142.325 21.46 142.855 21.28C143.385 21.09 143.845 20.815 144.235 20.455C144.635 20.095 144.95 19.655 145.18 19.135C145.41 18.605 145.525 18 145.525 17.32C145.525 16.6 145.415 15.96 145.195 15.4C144.985 14.83 144.635 14.35 144.145 13.96C143.855 13.73 143.56 13.555 143.26 13.435C142.96 13.305 142.665 13.21 142.375 13.15C142.085 13.09 141.795 13.055 141.505 13.045C141.215 13.035 140.93 13.03 140.65 13.03H139.345ZM148.128 12.715C148.128 12.645 148.133 12.56 148.143 12.46C148.153 12.35 148.178 12.255 148.218 12.175H151.338C151.368 12.255 151.383 12.36 151.383 12.49C151.393 12.61 151.378 12.695 151.338 12.745C151.328 12.765 151.293 12.785 151.233 12.805C151.183 12.825 151.118 12.845 151.038 12.865C150.968 12.885 150.893 12.905 150.813 12.925C150.743 12.945 150.683 12.96 150.633 12.97C150.553 12.99 150.488 13.015 150.438 13.045C150.398 13.065 150.373 13.1 150.363 13.15C150.353 13.25 150.343 13.375 150.333 13.525C150.333 13.675 150.333 13.825 150.333 13.975C150.333 14.115 150.333 14.245 150.333 14.365C150.333 14.475 150.333 14.55 150.333 14.59V21.565C150.463 21.585 150.588 21.61 150.708 21.64C150.838 21.67 150.953 21.7 151.053 21.73C151.163 21.75 151.248 21.77 151.308 21.79C151.378 21.81 151.413 21.825 151.413 21.835C151.413 21.905 151.408 21.99 151.398 22.09C151.388 22.2 151.363 22.295 151.323 22.375H148.203C148.173 22.295 148.153 22.19 148.143 22.06C148.143 21.94 148.163 21.855 148.203 21.805C148.213 21.795 148.248 21.78 148.308 21.76C148.368 21.73 148.433 21.705 148.503 21.685C148.583 21.665 148.658 21.645 148.728 21.625C148.798 21.605 148.858 21.59 148.908 21.58C148.988 21.56 149.048 21.54 149.088 21.52C149.138 21.49 149.168 21.45 149.178 21.4C149.188 21.3 149.193 21.175 149.193 21.025C149.203 20.875 149.208 20.73 149.208 20.59C149.208 20.44 149.208 20.31 149.208 20.2C149.208 20.08 149.208 20 149.208 19.96V12.985C149.078 12.965 148.948 12.94 148.818 12.91C148.698 12.88 148.583 12.855 148.473 12.835C148.373 12.805 148.288 12.78 148.218 12.76C148.158 12.74 148.128 12.725 148.128 12.715ZM152.984 22.375C152.954 22.295 152.934 22.19 152.924 22.06C152.924 21.94 152.944 21.855 152.984 21.805C152.994 21.795 153.024 21.78 153.074 21.76C153.124 21.73 153.179 21.705 153.239 21.685C153.309 21.665 153.374 21.645 153.434 21.625C153.504 21.605 153.564 21.59 153.614 21.58C153.694 21.56 153.754 21.54 153.794 21.52C153.844 21.49 153.874 21.45 153.884 21.4C153.894 21.3 153.899 21.175 153.899 21.025C153.909 20.875 153.914 20.725 153.914 20.575C153.914 20.425 153.914 20.29 153.914 20.17C153.914 20.04 153.914 19.955 153.914 19.915V16.855C153.914 16.625 153.914 16.36 153.914 16.06C153.924 15.76 153.929 15.455 153.929 15.145C153.939 14.825 153.944 14.52 153.944 14.23C153.954 13.93 153.964 13.67 153.974 13.45L153.629 13L152.669 12.79C152.639 12.73 152.624 12.635 152.624 12.505C152.634 12.365 152.649 12.255 152.669 12.175H154.514L161.129 20.47C161.119 20.25 161.114 20.01 161.114 19.75C161.114 19.49 161.114 19.24 161.114 19C161.114 18.75 161.114 18.515 161.114 18.295C161.114 18.065 161.114 17.865 161.114 17.695V12.985C160.854 12.935 160.619 12.885 160.409 12.835C160.209 12.775 160.109 12.735 160.109 12.715C160.109 12.645 160.114 12.56 160.124 12.46C160.134 12.35 160.159 12.255 160.199 12.175H162.884C162.914 12.255 162.929 12.36 162.929 12.49C162.939 12.61 162.924 12.695 162.884 12.745C162.874 12.765 162.844 12.785 162.794 12.805C162.744 12.825 162.684 12.845 162.614 12.865C162.554 12.885 162.489 12.905 162.419 12.925C162.349 12.945 162.294 12.96 162.254 12.97C162.174 12.99 162.109 13.015 162.059 13.045C162.019 13.065 161.994 13.1 161.984 13.15C161.974 13.25 161.964 13.38 161.954 13.54C161.954 13.69 161.954 13.84 161.954 13.99C161.954 14.14 161.954 14.275 161.954 14.395C161.954 14.515 161.954 14.595 161.954 14.635V17.695C161.954 17.935 161.949 18.22 161.939 18.55C161.939 18.87 161.934 19.205 161.924 19.555C161.924 19.895 161.919 20.225 161.909 20.545C161.909 20.855 161.904 21.12 161.894 21.34L161.849 22.525H161.264L154.709 14.365C154.719 14.785 154.729 15.225 154.739 15.685C154.749 16.145 154.754 16.535 154.754 16.855V21.565C155.014 21.615 155.244 21.67 155.444 21.73C155.654 21.78 155.759 21.815 155.759 21.835C155.759 21.905 155.754 21.99 155.744 22.09C155.734 22.2 155.709 22.295 155.669 22.375H152.984ZM171.519 18.37C171.259 18.32 171.024 18.27 170.814 18.22C170.614 18.16 170.514 18.12 170.514 18.1C170.514 18.03 170.519 17.945 170.529 17.845C170.539 17.735 170.564 17.64 170.604 17.56H173.574C173.604 17.64 173.619 17.745 173.619 17.875C173.629 17.995 173.614 18.08 173.574 18.13C173.554 18.16 173.469 18.2 173.319 18.25C173.169 18.3 173.044 18.335 172.944 18.355C172.864 18.375 172.799 18.4 172.749 18.43C172.709 18.45 172.684 18.485 172.674 18.535C172.664 18.635 172.654 18.76 172.644 18.91C172.644 19.05 172.644 19.195 172.644 19.345C172.644 19.485 172.644 19.61 172.644 19.72C172.644 19.83 172.644 19.905 172.644 19.945V21.82C172.064 22.11 171.474 22.32 170.874 22.45C170.274 22.58 169.614 22.645 168.894 22.645C168.144 22.645 167.479 22.505 166.899 22.225C166.319 21.955 165.829 21.585 165.429 21.115C165.039 20.645 164.744 20.095 164.544 19.465C164.344 18.835 164.244 18.165 164.244 17.455C164.244 16.545 164.374 15.75 164.634 15.07C164.894 14.38 165.249 13.805 165.699 13.345C166.149 12.885 166.669 12.545 167.259 12.325C167.859 12.095 168.494 11.98 169.164 11.98C169.644 11.98 170.069 12.015 170.439 12.085C170.809 12.145 171.139 12.225 171.429 12.325C171.779 12.445 172.049 12.56 172.239 12.67C172.439 12.78 172.619 12.89 172.779 13V15.07C172.699 15.1 172.609 15.12 172.509 15.13C172.409 15.14 172.324 15.135 172.254 15.115C172.224 14.825 172.144 14.535 172.014 14.245C171.884 13.945 171.729 13.71 171.549 13.54C171.289 13.31 170.954 13.135 170.544 13.015C170.134 12.895 169.714 12.835 169.284 12.835C168.734 12.835 168.224 12.935 167.754 13.135C167.294 13.335 166.894 13.63 166.554 14.02C166.214 14.41 165.949 14.89 165.759 15.46C165.569 16.03 165.474 16.68 165.474 17.41C165.474 18.05 165.564 18.64 165.744 19.18C165.924 19.72 166.174 20.185 166.494 20.575C166.814 20.965 167.194 21.27 167.634 21.49C168.084 21.71 168.574 21.82 169.104 21.82C169.554 21.82 169.949 21.785 170.289 21.715C170.629 21.635 170.969 21.525 171.309 21.385C171.419 21.335 171.479 21.275 171.489 21.205C171.509 21.135 171.519 20.99 171.519 20.77V18.37ZM177.262 17.35C176.992 17.24 176.722 17.1 176.452 16.93C176.192 16.75 175.952 16.545 175.732 16.315C175.522 16.085 175.347 15.825 175.207 15.535C175.077 15.245 175.012 14.925 175.012 14.575C175.012 14.265 175.077 13.95 175.207 13.63C175.337 13.31 175.537 13.025 175.807 12.775C176.077 12.515 176.417 12.305 176.827 12.145C177.237 11.985 177.722 11.905 178.282 11.905C178.682 11.905 179.062 11.94 179.422 12.01C179.782 12.08 180.147 12.185 180.517 12.325L181.267 12.595C181.317 12.615 181.347 12.64 181.357 12.67C181.377 12.69 181.387 12.73 181.387 12.79V14.665C181.287 14.685 181.207 14.695 181.147 14.695C181.087 14.695 181.002 14.685 180.892 14.665L180.532 13.69C180.432 13.43 180.172 13.21 179.752 13.03C179.332 12.85 178.822 12.76 178.222 12.76C177.472 12.76 176.937 12.91 176.617 13.21C176.307 13.51 176.152 13.9 176.152 14.38C176.152 14.67 176.197 14.915 176.287 15.115C176.387 15.315 176.517 15.49 176.677 15.64C176.837 15.78 177.022 15.9 177.232 16C177.442 16.1 177.662 16.2 177.892 16.3L179.512 16.975C179.792 17.095 180.067 17.235 180.337 17.395C180.607 17.555 180.842 17.745 181.042 17.965C181.252 18.185 181.417 18.44 181.537 18.73C181.667 19.02 181.732 19.35 181.732 19.72C181.732 20.1 181.657 20.465 181.507 20.815C181.367 21.165 181.147 21.475 180.847 21.745C180.557 22.015 180.187 22.23 179.737 22.39C179.287 22.56 178.757 22.645 178.147 22.645C177.727 22.645 177.317 22.61 176.917 22.54C176.527 22.47 176.177 22.38 175.867 22.27L175.117 21.97C174.997 21.93 174.937 21.86 174.937 21.76V19.69C175.097 19.65 175.267 19.65 175.447 19.69L175.792 20.89C175.872 21.16 176.142 21.38 176.602 21.55C177.072 21.71 177.632 21.79 178.282 21.79C179.102 21.79 179.692 21.62 180.052 21.28C180.412 20.94 180.592 20.475 180.592 19.885C180.592 19.585 180.547 19.34 180.457 19.15C180.367 18.95 180.247 18.785 180.097 18.655C179.957 18.515 179.792 18.405 179.602 18.325C179.412 18.235 179.222 18.15 179.032 18.07L177.262 17.35Z" fill="white" fill-opacity="0.63"/>
<path d="M25.7948 11.8488L25.793 11.8273L3.03438 11.8257L30.0618 7.86344L4.4794 7.89313L33.8609 3.87647L33.8477 3.86162L5.87134 3.95894L38.3371 0.00989663L38.3254 0L7.38604 0.0131955L5.45159 3.95894L5.43833 3.95729L3.56196 8.01521H3.57855L1.73867 12.0137L1.76853 12.0121L0 15.9182L25.7948 11.8488Z" fill="white"/>
<path d="M45.4256 10.0687C38.3597 17.081 28.51 28.8325 20.165 46.1891C29.0591 26.4158 38.4244 13.1814 43.8311 6.54692L43.8013 6.52547C36.7172 13.1205 25.0575 26.015 15.4367 46.2435C26.0131 22.5675 37.497 8.15358 42.197 2.93273H42.1556C35.755 8.30699 21.25 22.2969 9.91215 46.5389C23.8896 14.9234 39.4911 0.648098 39.9822 0.301691L40.0021 0.245605L39.4762 0.606857C34.4792 4.49651 17.0891 19.4663 4.30957 48.1553L9.15065 48.1967L9.18051 48.1983L14.501 48.2478H14.5625L19.1695 48.289H19.2342L25.7377 48.3501C30.9836 29.5434 40.0171 17.5693 45.4073 10.1001L45.4256 10.0687Z" fill="white"/>
</svg>
